<svg width="336" height="336" viewBox="0 0 336 336" fill="none" xmlns="http://www.w3.org/2000/svg">
<path fill-rule="evenodd" clip-rule="evenodd" d="M168 30.5455C92.0859 30.5455 30.5455 92.0859 30.5455 168C30.5455 243.914 92.0859 305.455 168 305.455C243.914 305.455 305.455 243.914 305.455 168C305.455 92.0859 243.914 30.5455 168 30.5455ZM0 168C0 75.2162 75.2162 0 168 0C260.784 0 336 75.2162 336 168C336 260.784 260.784 336 168 336C75.2162 336 0 260.784 0 168Z" fill="#0050FF"></path>
<path fill-rule="evenodd" clip-rule="evenodd" d="M251.811 111.043C256.288 96.9398 242.913 83.6939 228.854 88.3071L133.087 119.731C127.544 121.549 123.213 125.923 121.447 131.483L91.7733 224.957C87.2961 239.06 100.671 252.306 114.73 247.693L210.497 216.269C216.04 214.45 220.371 210.077 222.137 204.516L251.811 111.043ZM171.774 189.817C183.824 189.817 193.592 180.049 193.592 168C193.592 155.95 183.824 146.182 171.774 146.182C159.724 146.182 149.956 155.95 149.956 168C149.956 180.049 159.724 189.817 171.774 189.817Z" fill="#0050FF"></path>
</svg>