<svg width="970" height="348" viewBox="0 0 970 348" fill="none" xmlns="http://www.w3.org/2000/svg">
<path d="M217.738 261.656V178.574C217.738 157.929 223.276 142.068 234.351 130.99C245.594 119.913 261.619 114.374 282.427 114.374C284.608 114.374 288.048 114.542 292.747 114.877C297.445 115.045 302.144 115.633 306.842 116.64V151.635C303.654 151.131 300.634 150.712 297.781 150.376C294.928 149.873 291.74 149.621 288.216 149.621C283.014 149.621 278.148 150.376 273.617 151.887C269.086 153.397 265.395 156.251 262.542 160.447C259.857 164.643 258.515 170.769 258.515 178.825V261.656H217.738Z" fill="#0050FF"></path>
<path d="M345.521 102.541C338.976 102.541 333.439 100.611 328.908 96.7505C324.545 92.8901 322.364 87.8548 322.364 81.6446C322.364 75.6023 324.545 70.6509 328.908 66.7906C333.439 62.9302 338.976 61 345.521 61C351.897 61 357.267 62.9302 361.63 66.7906C366.161 70.6509 368.426 75.6023 368.426 81.6446C368.426 87.8548 366.161 92.8901 361.63 96.7505C357.267 100.611 351.897 102.541 345.521 102.541ZM325.132 261.656V118.15H365.909V261.656H325.132Z" fill="#0050FF"></path>
<path d="M446.547 265.432C427.25 265.432 412.064 260.984 400.989 252.089C389.913 243.025 384.376 230.689 384.376 215.079H420.37C421.712 222.297 424.649 227.584 429.18 230.941C433.71 234.297 439.332 235.976 446.044 235.976C451.917 235.976 456.784 234.801 460.643 232.451C464.503 230.101 466.432 226.745 466.432 222.381C466.432 219.024 464.922 216.506 461.902 214.828C459.049 213.149 453.595 211.303 445.541 209.289C439.835 207.946 434.801 206.771 430.438 205.764C426.243 204.589 421.712 203.163 416.846 201.484C411.141 199.47 405.855 197.036 400.989 194.183C396.29 191.33 392.431 187.469 389.41 182.602C386.557 177.567 385.131 171.021 385.131 162.964C385.131 153.901 386.893 146.264 390.417 140.054C393.941 133.844 398.639 128.892 404.512 125.2C410.386 121.339 416.762 118.57 423.642 116.892C430.69 115.213 437.57 114.374 444.282 114.374C455.525 114.374 465.509 116.388 474.235 120.416C482.961 124.277 489.841 129.732 494.875 136.781C499.909 143.662 502.426 151.719 502.426 160.95H464.167C464.167 155.915 461.902 151.719 457.371 148.362C453.008 145.005 447.806 143.327 441.765 143.327C437.57 143.327 433.375 144.334 429.18 146.348C424.985 148.362 422.887 151.635 422.887 156.167C422.887 159.188 424.229 161.789 426.914 163.971C429.599 165.986 434.801 168.084 442.52 170.266C445.373 170.937 448.729 171.776 452.588 172.783C456.616 173.79 460.559 174.797 464.419 175.804C468.278 176.644 471.466 177.483 473.984 178.322C484.891 181.511 492.778 186.378 497.644 192.924C502.678 199.47 505.195 207.694 505.195 217.597C505.195 232.703 499.993 244.452 489.589 252.844C479.353 261.236 465.006 265.432 446.547 265.432Z" fill="#0050FF"></path>
<path d="M525.981 261.656V72.8329H566.757V170.769L608.541 118.15H658.127L612.82 172.028L661.399 261.656H615.085L586.39 203.75L566.757 226.912V261.656H525.981Z" fill="#0050FF"></path>
<path d="M712.53 261.656C709.285 261.656 706.321 261.32 703.636 260.649C700.951 259.977 698.602 259.138 696.588 258.131V287H669.572V207.359L664.537 204.254V195.274L682.576 190.323H696.588V195.945C698.602 193.875 701.035 192.141 703.888 190.742C706.74 189.344 710.068 188.644 713.872 188.644C723.101 188.644 729.869 191.805 734.176 198.127C738.539 204.449 740.721 213.205 740.721 224.395C740.721 229.654 740.133 234.521 738.959 238.997C737.784 243.417 736.05 247.333 733.757 250.746C731.464 254.159 728.499 256.844 724.863 258.802C721.283 260.705 717.172 261.656 712.53 261.656ZM700.196 249.991C707.691 249.991 711.439 244.256 711.439 232.787V218.52C711.439 213.485 710.572 209.736 708.838 207.275C707.16 204.813 704.978 203.582 702.294 203.582C700.448 203.582 698.546 204.142 696.588 205.261V249.571C697.259 249.739 697.875 249.851 698.434 249.907C699.049 249.963 699.637 249.991 700.196 249.991Z" fill="#0050FF"></path>
<path d="M749.519 261.656V166.741L744.485 163.72V155.915L771.418 151.719H776.872V261.656H749.519Z" fill="#0050FF"></path>
<path d="M829.079 250.494C828.743 251.278 828.044 252.313 826.982 253.599C825.975 254.886 824.632 256.313 822.954 257.879C821.276 259.39 819.207 260.677 816.745 261.74C814.284 262.859 811.795 263.418 809.278 263.418C801.391 263.418 795.742 261.068 792.33 256.369C788.974 251.669 787.296 243.837 787.296 232.871V202.995L784.359 199.974V190.323H814.816V238.158C814.76 240.675 815.179 242.55 816.074 243.781C816.969 244.955 818.591 245.543 820.941 245.543C821.276 245.543 821.584 245.543 821.864 245.543C822.143 245.487 822.423 245.431 822.703 245.375C822.982 245.263 823.206 245.179 823.374 245.123C823.598 245.067 823.849 244.983 824.129 244.872C824.409 244.704 824.632 244.564 824.8 244.452C824.968 244.34 825.192 244.2 825.471 244.032C825.751 243.809 825.947 243.641 826.059 243.529C826.226 243.417 826.45 243.249 826.73 243.025C827.065 242.746 827.317 242.55 827.485 242.438V202.995L822.954 199.974V190.323H854.921V261.656H831.68L829.079 250.494Z" fill="#0050FF"></path>
<path d="M888.53 263.418C883.272 263.418 877.958 262.551 872.588 260.817C867.219 259.026 863.779 257.292 862.268 255.613L864.45 242.102C866.352 243.948 869.512 245.543 873.931 246.886C878.406 248.228 882.964 248.9 887.607 248.9C890.963 248.9 893.256 248.48 894.487 247.641C895.773 246.802 896.417 245.627 896.417 244.116C896.417 242.662 895.298 241.375 893.06 240.256C890.823 239.081 887.187 237.738 882.153 236.228C869.12 232.311 862.604 224.199 862.604 211.89C862.604 206.855 864.058 202.547 866.967 198.967C869.876 195.33 873.595 192.7 878.126 191.078C882.657 189.456 887.719 188.644 893.312 188.644C902.877 188.644 909.925 190.407 914.456 193.931C915.462 194.882 915.966 195.358 915.966 195.358L912.274 207.359C908.582 203.722 903.492 201.904 897.004 201.904C891.69 201.904 889.033 203.47 889.033 206.603C889.033 207.499 889.229 208.254 889.62 208.869C890.012 209.429 890.655 209.932 891.55 210.38C892.501 210.772 893.424 211.107 894.319 211.387C895.214 211.611 896.472 211.946 898.095 212.394C899.717 212.786 901.115 213.149 902.29 213.485C908.834 215.667 913.589 218.744 916.553 222.716C919.518 226.689 921 231.64 921 237.57C921 254.802 910.177 263.418 888.53 263.418Z" fill="#0050FF"></path>
<path fill-rule="evenodd" clip-rule="evenodd" d="M123.725 125.761C89.9593 125.761 62.5865 153.14 62.5865 186.913C62.5865 220.687 89.9593 248.066 123.725 248.066C157.492 248.066 184.865 220.687 184.865 186.913C184.865 153.14 157.492 125.761 123.725 125.761ZM49 186.913C49 145.634 82.4557 112.171 123.725 112.171C164.995 112.171 198.451 145.634 198.451 186.913C198.451 228.192 164.995 261.656 123.725 261.656C82.4557 261.656 49 228.192 49 186.913Z" fill="#0050FF"></path>
<path fill-rule="evenodd" clip-rule="evenodd" d="M161.004 161.574C162.995 155.299 157.047 149.406 150.793 151.458L108.197 165.439C105.731 166.248 103.804 168.193 103.019 170.667L89.8203 212.253C87.8288 218.528 93.7777 224.421 100.031 222.368L142.628 208.388C145.093 207.579 147.02 205.633 147.805 203.159L161.004 161.574ZM125.404 196.62C130.764 196.62 135.109 192.274 135.109 186.913C135.109 181.552 130.764 177.206 125.404 177.206C120.045 177.206 115.7 181.552 115.7 186.913C115.7 192.274 120.045 196.62 125.404 196.62Z" fill="#0050FF"></path>
</svg>